. 
 
http://www.torrenting.com          :     Once & For all ;)


               www . Torrenting . Com 

(((((((((((((= Enjoy No RAR releases =))))))))))))))))))))


...................................NFO:....................................

.








































          
          
              
              
                    
                    
                    
                    
Mona.Lisa.Smile.2003.DVDRiP.XviD.AC3-SiC

Poster:
[img]http://img685.imageshack.us/img685/9673/monaqv.jpg[/img]

IMDB Link: 
http://www.imdb.com/title/tt0304415

Description:
The story of Katherine Ann Watson, a feminist teacher who studied at UCLA graduate school and in 1953 left her boyfriend behind in Los Angeles, California to teach at Wellesley College, a conservative women's private liberal arts college in Massachusetts, United States.

Drama | Romance

General:
Complete name                    : Mona.Lisa.Smile.2003.DVDRiP.XviD.AC3-SiC.avi
Format                           : AVI
Format/Info                      : Audio Video Interleave
File size                        : 1.25 GiB
Duration                         : 1h 59mn
Overall bit rate                 : 1 497 Kbps

Video
ID                               : 0
Format                           : MPEG-4 Visual
Format profile                   : Advanced Simple@L5
Format settings, BVOP            : 3
Format settings, QPel            : No
Format settings, GMC             : No warppoints
Format settings, Matrix          : Default (H.263)
Codec ID                         : XVID
Codec ID/Hint                    : XviD
Duration                         : 1h 59mn
Bit rate                         : 1 298 Kbps
Width                            : 720 pixels
Height                           : 384 pixels
Display aspect ratio             : 1.875
Frame rate                       : 23.976 fps
Color space                      : YUV
Chroma subsampling               : 4:2:0
Bit depth                        : 8 bits
Scan type                        : Progressive
Compression mode                 : Lossy
Bits/(Pixel*Frame)               : 0.196
Stream size                      : 1.08 GiB (87%)
Writing library                  : XviD 1.2.1 (UTC 2008-12-04)

Audio
ID                               : 1
Format                           : AC-3
Format/Info                      : Audio Coding 3
Mode extension                   : CM (complete main)
Codec ID                         : 2000
Duration                         : 1h 59mn
Bit rate mode                    : Constant
Bit rate                         : 192 Kbps
Channel(s)                       : 2 channels
Channel positions                : Front: L R
Sampling rate                    : 48.0 KHz
Bit depth                        : 16 bits
Compression mode                 : Lossy
Stream size                      : 164 MiB (13%)
Alignment                        : Aligned on interleaves
Interleave, duration             : 64 ms (1.53 video frames)
Interleave, preload duration     : 192 ms

Screenshots:
[IMG]http://img28.imageshack.us/img28/4940/vlcsnap2012011802h42m39.png[/IMG]
[IMG]http://img687.imageshack.us/img687/8937/vlcsnap2012011802h43m16.png[/IMG]
[IMG]http://img12.imageshack.us/img12/745/vlcsnap2012011802h43m28.png[/IMG]
[IMG]http://img443.imageshack.us/img443/3529/vlcsnap2012011802h43m51.png[/IMG]
[IMG]http://img832.imageshack.us/img832/8979/vlcsnap2012011802h44m57.png[/IMG]
[IMG]http://img822.imageshack.us/img822/4928/vlcsnap2012011802h47m19.png[/IMG]

Note:  Normal stuff applied, plus a few extra.  Audio converted to 2ch ac3 192kbps then muxed to our encode.  All in all it came together rather nice.

Source:  Ours

Enjoy!

Respects to T00NG0D, ELEKTRI4KA, PA, YeFsTe, MrRep and everyone in the struggle...